# This file uses centimeters as units for non-parametric coordinates.

mtllib Pommes.mtl
g default
v -0.902191 5.570895 0.686930
v 0.778909 5.597679 0.706606
v -0.850833 5.525741 -0.908430
v 0.730468 5.550433 -0.930989
v -0.883145 4.010186 0.629157
v 0.818953 4.030043 0.695758
v 0.748195 4.007201 -0.989141
v -0.831472 3.994384 -0.931560
v -0.741337 2.661493 0.578378
v 0.814242 2.701149 0.647995
v 0.812724 2.645340 -0.979350
v -0.784071 2.616185 -0.903934
v -0.591987 1.193015 0.690340
v 0.876308 1.217733 0.686239
v 0.924425 1.176316 -0.860526
v -0.725440 1.144181 -0.839033
v -0.588966 -0.324362 0.865009
v 0.872447 -0.333748 0.817705
v 0.929071 -0.347139 -0.679951
v -0.712870 -0.344825 -0.725300
v -0.681785 -1.731304 0.945018
v 0.828034 -1.754258 0.898339
v 0.827199 -1.722729 -0.590998
v -0.739392 -1.699243 -0.640333
v -0.825138 -3.008851 0.988693
v 0.801187 -3.022891 0.935306
v 0.710408 -2.959513 -0.570032
v -0.756595 -2.947918 -0.605645
v -0.925494 -4.196286 0.975259
v 0.847437 -4.185255 0.939681
v 0.705401 -4.106253 -0.673864
v -0.800942 -4.113468 -0.703169
v -0.750278 -5.594453 0.735329
v 0.689828 -5.569616 0.725260
v -0.716475 -5.513170 -0.690419
v 0.649904 -5.484634 -0.674378
vt 0.191693 0.856290
vt 0.341636 0.854257
vt 0.336461 0.991593
vt 0.190728 0.995798
vt 0.195943 0.738028
vt 0.340765 0.733062
vt 0.192540 0.606015
vt 0.330191 0.602330
vt 0.180840 0.467945
vt 0.314121 0.466753
vt 0.173665 0.341530
vt 0.306204 0.344336
vt 0.170375 0.228632
vt 0.304339 0.234272
vt 0.169986 0.125190
vt 0.313579 0.132220
vt 0.189067 0.001992
vt 0.313625 0.009555
vt 0.349172 0.855327
vt 0.488064 0.856733
vt 0.493205 0.995624
vt 0.351230 0.991606
vt 0.351630 0.732677
vt 0.483545 0.736709
vt 0.357406 0.601680
vt 0.493509 0.606026
vt 0.367527 0.469170
vt 0.509053 0.470991
vt 0.375089 0.348637
vt 0.516173 0.345783
vt 0.378176 0.237514
vt 0.520060 0.232091
vt 0.369497 0.133789
vt 0.518864 0.126418
vt 0.370632 0.009226
vt 0.497512 0.001992
vt 0.694206 0.151597
vt 0.692455 0.001992
vt 0.838188 0.006303
vt 0.836181 0.147027
vt 0.838978 0.280611
vt 0.840405 0.159013
vt 0.964963 0.155460
vt 0.965859 0.283619
vt 0.005697 0.856733
vt 0.157171 0.858500
vt 0.153607 0.998008
vt 0.004002 0.995624
vt 0.018316 0.736709
vt 0.156751 0.740238
vt 0.031608 0.606026
vt 0.162275 0.608226
vt 0.031876 0.470991
vt 0.161931 0.470155
vt 0.023616 0.345783
vt 0.157979 0.343741
vt 0.010859 0.232091
vt 0.155590 0.230842
vt 0.001928 0.126418
vt 0.159705 0.127400
vt 0.017521 0.001992
vt 0.145679 0.004202
vt 0.668773 0.139328
vt 0.528195 0.140469
vt 0.526472 0.004189
vt 0.667196 0.001992
vt 0.674516 0.260523
vt 0.532413 0.263118
vt 0.684456 0.391256
vt 0.537631 0.394115
vt 0.684870 0.526832
vt 0.538749 0.526626
vt 0.675804 0.649249
vt 0.536389 0.647159
vt 0.665410 0.759313
vt 0.534858 0.758282
vt 0.664965 0.861365
vt 0.530912 0.862007
vt 0.660026 0.984030
vt 0.538429 0.986570
vn -0.015796 0.999467 -0.028580
vn -0.015796 0.999467 -0.028580
vn -0.015796 0.999467 -0.028580
vn -0.015796 0.999467 -0.028580
vn -0.032120 -0.029596 0.999046
vn -0.032345 -0.029830 0.999031
vn -0.025178 -0.022398 0.999432
vn -0.025178 -0.022398 0.999432
vn 0.999334 0.020795 -0.029969
vn 0.999341 0.020858 -0.029692
vn 0.999155 0.019359 -0.036255
vn 0.999155 0.019359 -0.036255
vn -0.033316 0.006235 -0.999425
vn -0.033128 0.006722 -0.999429
vn -0.025646 0.026109 -0.999330
vn -0.025646 0.026109 -0.999330
vn -0.999103 -0.038261 -0.018130
vn -0.999133 -0.037209 -0.018693
vn -0.999408 -0.011566 -0.032403
vn -0.999408 -0.011566 -0.032403
vn -0.032242 0.003498 0.999474
vn -0.031822 0.005512 0.999478
vn 0.999147 0.041036 -0.004719
vn 0.999134 0.041373 -0.004397
vn -0.034630 -0.041450 -0.998540
vn -0.034871 -0.040552 -0.998569
vn -0.997221 -0.068003 0.030433
vn -0.997224 -0.068008 0.030326
vn -0.003203 0.073836 0.997265
vn -0.002746 0.074413 0.997224
vn 0.999232 0.031144 0.023760
vn 0.999192 0.032906 0.023080
vn -0.009660 -0.081129 -0.996657
vn -0.009927 -0.080887 -0.996674
vn -0.996942 -0.031756 0.071400
vn -0.996960 -0.029602 0.072075
vn 0.024425 0.077600 0.996685
vn 0.024229 0.078168 0.996646
vn 0.999380 -0.023219 0.026480
vn 0.999415 -0.020696 0.027215
vn 0.017639 -0.082405 -0.996443
vn 0.017866 -0.082053 -0.996468
vn -0.997240 0.023078 0.070566
vn -0.997269 0.024851 0.069555
vn 0.032199 0.042044 0.998597
vn 0.032197 0.042747 0.998567
vn 0.998490 -0.054516 -0.006703
vn 0.998517 -0.054245 -0.004684
vn 0.028388 -0.046831 -0.998499
vn 0.028362 -0.045946 -0.998541
vn -0.998067 0.054255 0.030312
vn -0.998099 0.054934 0.027946
vn 0.029023 0.011548 0.999512
vn 0.029164 0.012342 0.999498
vn 0.998417 -0.017756 -0.053361
vn 0.998431 -0.019305 -0.052554
vn 0.025035 0.027340 -0.999313
vn 0.024925 0.029425 -0.999256
vn -0.997576 0.063664 -0.028087
vn -0.997543 0.063675 -0.029220
vn 0.020780 -0.087133 0.995980
vn 0.020869 -0.085793 0.996094
vn 0.997254 -0.027993 -0.068558
vn 0.997236 -0.028841 -0.068471
vn 0.018709 0.038582 -0.999080
vn 0.018666 0.037939 -0.999106
vn -0.998310 -0.016151 -0.055824
vn -0.998334 -0.014545 -0.055831
vn 0.015817 -0.161035 0.986822
vn 0.015817 -0.161035 0.986822
vn 0.995363 -0.071798 -0.064016
vn 0.995363 -0.071798 -0.064016
vn 0.015836 -0.004239 -0.999866
vn 0.015836 -0.004239 -0.999866
vn -0.994596 -0.087816 -0.055380
vn -0.994596 -0.087816 -0.055380
vn 0.019106 -0.998088 -0.058776
vn 0.019106 -0.998088 -0.058776
vn 0.019106 -0.998088 -0.058776
vn 0.019106 -0.998088 -0.058776
s off
g SmartCombine_0
usemtl initialShadingGroup
f 1/37/1 2/38/2 4/39/3 3/40/4
s 1
f 5/45/5 6/46/6 2/47/7 1/48/8
s 2
f 6/1/9 7/2/10 4/3/11 2/4/12
s 3
f 7/63/13 8/64/14 3/65/15 4/66/16
s 4
f 8/19/17 5/20/18 1/21/19 3/22/20
s 1
f 9/49/21 10/50/22 6/46/6 5/45/5
s 2
f 10/5/23 11/6/24 7/2/10 6/1/9
s 3
f 11/67/25 12/68/26 8/64/14 7/63/13
s 4
f 12/23/27 9/24/28 5/20/18 8/19/17
s 1
f 13/51/29 14/52/30 10/50/22 9/49/21
s 2
f 14/7/31 15/8/32 11/6/24 10/5/23
s 3
f 15/69/33 16/70/34 12/68/26 11/67/25
s 4
f 16/25/35 13/26/36 9/24/28 12/23/27
s 1
f 17/53/37 18/54/38 14/52/30 13/51/29
s 2
f 18/9/39 19/10/40 15/8/32 14/7/31
s 3
f 19/71/41 20/72/42 16/70/34 15/69/33
s 4
f 20/27/43 17/28/44 13/26/36 16/25/35
s 1
f 21/55/45 22/56/46 18/54/38 17/53/37
s 2
f 22/11/47 23/12/48 19/10/40 18/9/39
s 3
f 23/73/49 24/74/50 20/72/42 19/71/41
s 4
f 24/29/51 21/30/52 17/28/44 20/27/43
s 1
f 25/57/53 26/58/54 22/56/46 21/55/45
s 2
f 26/13/55 27/14/56 23/12/48 22/11/47
s 3
f 27/75/57 28/76/58 24/74/50 23/73/49
s 4
f 28/31/59 25/32/60 21/30/52 24/29/51
s 1
f 29/59/61 30/60/62 26/58/54 25/57/53
s 2
f 30/15/63 31/16/64 27/14/56 26/13/55
s 3
f 31/77/65 32/78/66 28/76/58 27/75/57
s 4
f 32/33/67 29/34/68 25/32/60 28/31/59
s 1
f 33/61/69 34/62/70 30/60/62 29/59/61
s 2
f 34/17/71 36/18/72 31/16/64 30/15/63
s 3
f 36/79/73 35/80/74 32/78/66 31/77/65
s 4
f 35/35/75 33/36/76 29/34/68 32/33/67
s off
f 35/41/77 36/42/78 34/43/79 33/44/80
